<svg width="81" height="63" viewBox="0 0 81 63" fill="none" xmlns="http://www.w3.org/2000/svg">
<g clip-path="url(#clip0_67_165)">
<path d="M39.4778 63C38.7799 63 38.1053 62.5586 37.8494 61.8617C36.1511 57.3551 35.2904 52.6858 35.2904 47.9934C35.2904 38.5387 38.7101 29.3861 44.9447 22.208C45.5728 21.4878 46.6661 21.3949 47.4106 22.0221C48.1317 22.6493 48.2248 23.7412 47.5967 24.4845C41.9204 31.0354 38.8032 39.375 38.8032 47.9934C38.8032 52.2677 39.5941 56.5188 41.1295 60.6305C41.4784 61.5365 41.0132 62.5354 40.1059 62.8839C39.8965 62.9535 39.6872 63 39.5011 63H39.4778Z" fill="#0255A3"/>
<path d="M47.364 60.2124C46.6661 60.2124 45.9914 59.7942 45.7355 59.0973C44.363 55.4967 43.6418 51.7799 43.6418 48.0166C43.6418 40.4668 46.4334 33.1493 51.4816 27.458C52.1097 26.7378 53.2263 26.6681 53.9475 27.3186C54.6686 27.9458 54.7384 29.0608 54.0871 29.781C49.5972 34.8451 47.1081 41.3263 47.1081 48.0398C47.1081 51.385 47.7362 54.6836 48.9691 57.8894C49.3181 58.7954 48.8761 59.7942 47.9688 60.1427C47.7594 60.2124 47.5501 60.2588 47.3407 60.2588L47.364 60.2124Z" fill="#0255A3"/>
<path d="M55.2503 57.448C54.5524 57.448 53.901 57.0299 53.6219 56.3562C52.5518 53.6615 52.0167 50.8739 52.0167 48.0398C52.0167 42.3484 54.1569 36.8894 58.0652 32.6847C58.7165 31.9878 59.8332 31.9414 60.5311 32.5918C61.229 33.2422 61.2755 34.3573 60.6241 35.0542C57.3207 38.6316 55.5062 43.2544 55.5062 48.063C55.5062 50.4557 55.9715 52.8252 56.8555 55.1018C57.2044 56.0077 56.7624 57.0066 55.8784 57.3551C55.6691 57.448 55.4597 57.4712 55.2271 57.4712L55.2503 57.448Z" fill="#0255A3"/>
<path d="M24.6591 61.49C11.0501 61.49 0 50.4558 0 36.8661C0 24.3916 9.49142 13.8684 21.7977 12.4513C24.7987 4.94801 32.0801 0 40.2222 0C48.3644 0 55.8086 5.04093 58.763 12.6836C70.953 14.0077 80.3281 24.3219 80.3281 36.6803C80.3281 47.9004 72.6977 57.5874 61.764 60.1892C60.8335 60.3982 59.8797 59.8407 59.6703 58.9115C59.4377 57.9823 60.0193 57.0299 60.973 56.8208C70.3249 54.5907 76.8386 46.3208 76.8386 36.7035C76.8386 25.8086 68.301 16.7489 57.3905 16.0985L56.2041 16.0288L55.8319 14.8905C53.6451 8.08407 47.3873 3.50774 40.2222 3.50774C33.0571 3.50774 26.9389 7.99115 24.7056 14.6582L24.3334 15.75L23.1702 15.8197C12.1434 16.5863 3.48949 25.8319 3.48949 36.8661C3.48949 48.5277 12.9809 58.0055 24.6591 58.0055C27.0552 58.0055 29.4048 57.6106 31.6381 56.8208C32.5453 56.5188 33.5456 56.9834 33.8713 57.8894C34.197 58.7954 33.7085 59.7942 32.8012 60.1195C30.1957 61.0254 27.4507 61.49 24.6823 61.49H24.6591Z" fill="#0255A3"/>
</g>
<defs>
<clipPath id="clip0_67_165">
<rect width="81" height="63" fill="white"/>
</clipPath>
</defs>
</svg>
