<svg width="81" height="63" viewBox="0 0 81 63" fill="none" xmlns="http://www.w3.org/2000/svg">
<g clip-path="url(#clip0_67_224)">
<path d="M39.4778 63.0001C38.7799 63.0001 38.1052 62.5587 37.8493 61.8618C36.1511 57.3552 35.2904 52.6859 35.2904 47.9935C35.2904 38.5388 38.7101 29.3862 44.9446 22.2081C45.5727 21.4879 46.6661 21.395 47.4105 22.0222C48.1317 22.6494 48.2248 23.7412 47.5966 24.4846C41.9204 31.0355 38.8031 39.3751 38.8031 47.9935C38.8031 52.2678 39.5941 56.5189 41.1295 60.6306C41.4784 61.5366 41.0131 62.5355 40.1059 62.8839C39.8965 62.9536 39.6871 63.0001 39.501 63.0001H39.4778Z" fill="#0255A3"/>
<path d="M47.364 60.2124C46.6661 60.2124 45.9915 59.7943 45.7356 59.0974C44.3631 55.4967 43.6419 51.7799 43.6419 48.0166C43.6419 40.4668 46.4335 33.1494 51.4816 27.458C52.1097 26.7378 53.2264 26.6682 53.9475 27.3186C54.6687 27.9458 54.7385 29.0609 54.0871 29.781C49.5973 34.8451 47.1081 41.3263 47.1081 48.0398C47.1081 51.385 47.7362 54.6836 48.9692 57.8894C49.3181 58.7954 48.8761 59.7943 47.9689 60.1427C47.7595 60.2124 47.5501 60.2589 47.3408 60.2589L47.364 60.2124Z" fill="#0255A3"/>
<path d="M55.2503 57.4479C54.5524 57.4479 53.901 57.0298 53.6219 56.3561C52.5517 53.6614 52.0167 50.8738 52.0167 48.0397C52.0167 42.3484 54.1569 36.8893 58.0651 32.6847C58.7165 31.9878 59.8332 31.9413 60.5311 32.5917C61.2289 33.2422 61.2755 34.3572 60.6241 35.0541C57.3207 38.6316 55.5062 43.2543 55.5062 48.063C55.5062 50.4557 55.9714 52.8251 56.8555 55.1017C57.2044 56.0077 56.7624 57.0066 55.8784 57.355C55.669 57.4479 55.4597 57.4712 55.227 57.4712L55.2503 57.4479Z" fill="#0255A3"/>
<path d="M24.6591 61.49C11.0501 61.49 0 50.4558 0 36.8661C0 24.3916 9.49142 13.8684 21.7977 12.4513C24.7987 4.94801 32.0801 0 40.2222 0C48.3644 0 55.8086 5.04093 58.763 12.6836C70.953 14.0077 80.3281 24.3219 80.3281 36.6803C80.3281 47.9004 72.6977 57.5874 61.764 60.1892C60.8335 60.3982 59.8797 59.8407 59.6703 58.9115C59.4377 57.9823 60.0193 57.0299 60.973 56.8208C70.3249 54.5907 76.8386 46.3208 76.8386 36.7035C76.8386 25.8086 68.301 16.7489 57.3905 16.0985L56.2041 16.0288L55.8319 14.8905C53.6451 8.08407 47.3873 3.50774 40.2222 3.50774C33.0571 3.50774 26.9389 7.99115 24.7056 14.6582L24.3334 15.75L23.1702 15.8197C12.1434 16.5863 3.48949 25.8319 3.48949 36.8661C3.48949 48.5277 12.9809 58.0055 24.6591 58.0055C27.0552 58.0055 29.4048 57.6106 31.6381 56.8208C32.5453 56.5188 33.5456 56.9834 33.8713 57.8894C34.197 58.7954 33.7085 59.7942 32.8012 60.1195C30.1957 61.0254 27.4507 61.49 24.6823 61.49H24.6591Z" fill="#0255A3"/>
</g>
<defs>
<clipPath id="clip0_67_224">
<rect width="81" height="63" fill="white"/>
</clipPath>
</defs>
</svg>
