<svg width="30" height="30" viewBox="0 0 30 30" fill="none" xmlns="http://www.w3.org/2000/svg">
<path d="M26.6602 11.1748V21.8784C26.6462 21.9114 26.6265 21.9436 26.6199 21.978C26.4851 22.6606 26.1086 23.1646 25.4956 23.4919C25.1389 23.6824 24.7529 23.7395 24.3538 23.7395C18.1179 23.7388 11.8821 23.7395 5.64697 23.7388C5.5708 23.7388 5.49536 23.7402 5.41919 23.7358C4.30518 23.6765 3.51563 22.8643 3.3772 21.9561C3.3728 21.929 3.35303 21.9041 3.33984 21.8784C3.33984 18.3108 3.33984 14.7424 3.33984 11.1748C3.44824 11.2407 3.5603 11.3022 3.66577 11.3726C5.94287 12.8894 8.21997 14.4084 10.4971 15.9253C11.3862 16.5178 12.2688 17.1221 13.1711 17.6941C13.9226 18.1709 14.751 18.3167 15.6335 18.1577C16.1594 18.0632 16.6267 17.845 17.0662 17.552C20.1804 15.4749 23.2954 13.3977 26.4104 11.322C26.491 11.2686 26.5774 11.2231 26.6609 11.1741L26.6602 11.1748Z" fill="#4C93E5"/>
<path d="M3.33984 8.71533V8.12354C3.35449 8.08252 3.37427 8.04297 3.38232 8.00049C3.47607 7.53174 3.70166 7.13843 4.05762 6.81909C4.50366 6.41919 5.03247 6.26099 5.62353 6.26172C11.874 6.26392 18.1252 6.26245 24.3757 6.26465C24.5339 6.26465 24.6936 6.27857 24.8503 6.30127C25.7249 6.42578 26.4521 7.12891 26.6162 8.00196C26.6243 8.0437 26.6448 8.08325 26.6587 8.12427V8.71607C26.6455 8.7417 26.625 8.76514 26.6199 8.79224C26.5554 9.15991 26.4067 9.49097 26.1475 9.7583C25.9805 9.93042 25.7908 10.0879 25.5908 10.2219C22.9131 12.0134 20.2324 13.7998 17.5518 15.5869C17.0852 15.8982 16.6187 16.2102 16.1484 16.5156C15.7617 16.7661 15.3325 16.8804 14.874 16.8525C14.4492 16.8269 14.0684 16.6694 13.7139 16.4314C12.1838 15.4053 10.6501 14.3857 9.11719 13.364C7.51538 12.2961 5.91284 11.2275 4.3103 10.1611C3.8064 9.82569 3.47754 9.37525 3.3728 8.771C3.36914 8.75122 3.3501 8.73438 3.33838 8.7168L3.33984 8.71533Z" fill="#4C93E5"/>
</svg>
