<svg width="30" height="30" viewBox="0 0 30 30" fill="none" xmlns="http://www.w3.org/2000/svg">
<path d="M26.6367 10.2783C26.6323 10.2446 26.6265 10.2117 26.6213 10.178C26.6111 10.1135 26.6008 10.052 26.5979 9.99487C26.5393 8.97827 26.3511 8.10449 26.0244 7.32373C25.3315 5.66992 24.1187 4.51636 22.4202 3.896C21.7822 3.66309 21.1274 3.521 20.4741 3.47485C20.0852 3.44775 19.6904 3.42798 19.3088 3.40967C19.0957 3.39941 18.8818 3.38916 18.6687 3.37744C18.6284 3.37524 18.583 3.36719 18.5347 3.35913C18.5083 3.35474 18.4819 3.34961 18.4548 3.34595L11.5649 3.34375L11.5437 3.34814C11.5232 3.35254 11.5027 3.35693 11.4822 3.36206C11.4536 3.36865 11.4273 3.37524 11.4104 3.37598C11.2354 3.3833 11.0596 3.38843 10.8838 3.39355C10.5505 3.40308 10.2056 3.41333 9.86426 3.43896C8.50782 3.54004 7.396 3.87036 6.46436 4.44897C5.28882 5.1792 4.448 6.19873 3.96461 7.48047C3.70972 8.15576 3.55298 8.8457 3.49805 9.53198C3.46583 9.93188 3.43067 10.397 3.41383 10.854C3.34571 12.7283 3.35816 14.6318 3.36988 16.4724C3.37354 17.0137 3.37647 17.5549 3.37793 18.0955C3.3794 18.7473 3.4087 19.4519 3.46729 20.251C3.54346 21.2939 3.77344 22.1978 4.17115 23.0144C4.82374 24.3547 5.844 25.3384 7.20191 25.9382C7.89771 26.2451 8.65723 26.4385 9.52515 26.5293C10.147 26.5945 10.7688 26.6135 11.3481 26.6245C11.3833 26.6245 11.4265 26.6333 11.4727 26.6414C11.4998 26.6465 11.5269 26.6516 11.554 26.6553L18.4885 26.6575L18.5098 26.6531C18.5303 26.6487 18.5508 26.6443 18.5713 26.6392C18.5999 26.6326 18.6262 26.626 18.6431 26.6252C18.8174 26.6179 18.9917 26.6128 19.1668 26.6077C19.4941 26.5974 19.8325 26.5872 20.1665 26.563C21.4534 26.4692 22.5139 26.1711 23.4097 25.6504C24.7647 24.863 25.7 23.7029 26.1899 22.2029C26.3855 21.6038 26.5086 20.9922 26.5547 20.3865C26.5642 20.2649 26.5723 20.1426 26.5803 20.021C26.5884 19.8979 26.5964 19.7756 26.6052 19.6555C26.606 19.6497 26.6118 19.6335 26.6155 19.6218C26.6206 19.6057 26.6265 19.5889 26.6309 19.5728L26.6389 19.5435V10.3098L26.6367 10.2791V10.2783ZM24.1758 17.5234C24.1743 18.3811 24.134 19.2249 24.0908 20.0093C24.0601 20.563 23.959 21.0764 23.7891 21.5356C23.3547 22.7119 22.5154 23.4912 21.2937 23.8516C20.8836 23.9724 20.4258 24.0464 19.8941 24.0764C18.104 24.179 16.2788 24.1694 14.5137 24.1606C14.0032 24.1577 13.478 24.1555 12.9573 24.1555C12.8855 24.1555 12.813 24.1555 12.7412 24.1555C12.1194 24.1555 11.4617 24.1409 10.6084 24.1057C10.0613 24.083 9.41675 24.0361 8.78614 23.8589C7.70069 23.5535 6.93751 22.936 6.45264 21.9722C6.25269 21.5745 6.11719 21.1233 6.03956 20.5938C5.92383 19.8086 5.91211 18.9963 5.90113 18.2112L5.89893 18.0625C5.88868 17.3528 5.88062 16.6431 5.87257 15.9333L5.86451 15.2258H5.87623V15.0076C5.87623 14.7944 5.87623 14.5813 5.87549 14.3674C5.87403 13.8899 5.8733 13.3955 5.87769 12.9099C5.88429 12.2412 5.89234 11.5864 5.92017 10.9309L5.9253 10.802C5.94727 10.2615 5.97071 9.70264 6.0835 9.1709C6.23804 8.43994 6.47608 7.88916 6.83277 7.43872C7.34327 6.79272 8.00538 6.36938 8.85572 6.1438C9.33106 6.01782 9.83277 5.94605 10.3469 5.9314C11.3174 5.90283 12.353 5.875 13.3989 5.87061C15.0527 5.86328 16.6897 5.86841 18.2637 5.88452C18.9038 5.89111 19.5623 5.92188 20.2764 5.97827C20.9443 6.03101 21.5479 6.19727 22.0693 6.47192C22.9036 6.91138 23.4844 7.59473 23.7957 8.50293C23.9473 8.94458 24.0337 9.35254 24.0601 9.75024C24.0674 9.85498 24.0747 9.96045 24.082 10.0652C24.1113 10.4841 24.1421 10.9177 24.1458 11.3411C24.1619 13.0388 24.1794 15.2764 24.1765 17.5234H24.1758Z" fill="#4C93E5"/>
<path d="M15.0776 8.9139C15.0608 8.9139 15.0432 8.9139 15.0264 8.9139C13.4458 8.89705 11.8806 9.53573 10.7336 10.6651C9.57788 11.8033 8.93701 13.3348 8.92969 14.9776C8.92237 16.6204 9.54932 18.1593 10.6948 19.3106C11.8411 20.462 13.3777 21.0963 15.0212 21.0963C16.7007 21.0963 18.2578 20.4371 19.4055 19.2403C20.4946 18.1043 21.1187 16.5604 21.1187 15.0047C21.1187 13.3707 20.4727 11.8304 19.3 10.6688C18.1567 9.53573 16.6589 8.9139 15.0769 8.9139H15.0776ZM17.5356 17.5631C16.8545 18.2347 15.9653 18.5994 15.0308 18.587H15.0249C14.0903 18.5987 13.1975 18.2362 12.512 17.5594C11.8147 16.8717 11.4316 15.9605 11.4338 14.9952C11.4375 13.0206 13.0474 11.4129 15.0212 11.4115H15.0234C15.9778 11.4115 16.8779 11.7872 17.5591 12.4691C18.2424 13.1539 18.6182 14.0555 18.616 15.0091C18.6138 15.9715 18.2307 16.8783 17.5364 17.5631H17.5356Z" fill="#4C93E5"/>
<path d="M21.1362 7.30396C20.3811 7.30396 19.5571 7.90308 19.5439 8.87061C19.5381 9.2998 19.7 9.7041 19.9995 10.0095C20.2969 10.3127 20.6939 10.4812 21.1165 10.4834C21.1201 10.4834 21.123 10.4834 21.1267 10.4834C21.5654 10.4834 21.9719 10.3135 22.273 10.0051C22.5674 9.70337 22.7293 9.302 22.7183 8.90356C22.7307 8.49634 22.5762 8.10449 22.2817 7.7998C21.9778 7.48486 21.561 7.30396 21.137 7.30396H21.1362Z" fill="#4C93E5"/>
</svg>
