<svg width="30" height="30" viewBox="0 0 30 30" fill="none" xmlns="http://www.w3.org/2000/svg">
<path d="M16.3777 26.2578H11.7393C11.6946 26.0513 11.6777 11.6753 11.7202 11.2534C11.9282 11.2073 15.9082 11.2029 16.1887 11.2549C16.1939 11.5837 16.1887 11.9206 16.1917 12.2568C16.1939 12.5915 16.1851 12.9263 16.1983 13.2844C16.407 13.0061 16.5806 12.7475 16.7813 12.5132C17.3372 11.865 18.0381 11.4277 18.8416 11.1531C19.752 10.8411 20.688 10.8169 21.6358 10.915C22.1946 10.9729 22.7373 11.0871 23.2595 11.2922C24.3787 11.7317 25.1411 12.5315 25.6055 13.6279C25.864 14.238 26.0142 14.8782 26.1086 15.5315C26.2302 16.376 26.2683 17.2263 26.2683 18.0781C26.2691 20.6994 26.2683 23.3201 26.2683 25.9414C26.2683 26.0227 26.2683 26.104 26.2683 26.167C26.2471 26.1926 26.2427 26.2007 26.2354 26.2065C26.2288 26.2117 26.22 26.2182 26.2119 26.2182C24.7368 26.2219 23.2617 26.2248 21.7866 26.2278C21.7332 26.2278 21.6797 26.2234 21.5984 26.2197C21.5962 26.112 21.5933 26.0146 21.5933 25.9165C21.5918 23.4057 21.5955 20.8943 21.5867 18.3835C21.5845 17.7793 21.5435 17.1758 21.3779 16.5884C21.2879 16.269 21.1589 15.968 20.9546 15.7029C20.5891 15.2283 20.0823 15.0181 19.5073 14.958C19.0576 14.9111 18.6087 14.9441 18.1743 15.0737C17.5115 15.2715 17.0471 15.7021 16.7659 16.3298C16.574 16.7598 16.4692 17.2161 16.4341 17.6826C16.3975 18.1755 16.3792 18.6699 16.3777 19.1643C16.3718 21.4187 16.3755 23.6731 16.3755 25.9275V26.2578H16.3777Z" fill="#4C93E5"/>
<path d="M4.13159 11.2322H8.73779C8.74585 11.2388 8.7539 11.2446 8.75903 11.2512C8.76416 11.2578 8.77075 11.2666 8.77075 11.2739C8.77368 16.2383 8.77661 21.2034 8.77807 26.1677C8.77807 26.1934 8.76562 26.2183 8.75537 26.2556C7.21728 26.2556 5.68213 26.2556 4.14624 26.2556C4.13965 26.2498 4.13159 26.2446 4.12573 26.2373C4.1206 26.2307 4.11328 26.2227 4.11328 26.2146C4.11035 21.2502 4.10815 16.2852 4.10669 11.3208C4.10669 11.2952 4.11987 11.2703 4.13013 11.2322H4.13159Z" fill="#4C93E5"/>
<path d="M9.13256 6.45021C9.15014 7.89089 7.95922 9.18508 6.40795 9.1675C4.96947 9.15138 3.72801 7.97804 3.7368 6.41799C3.74559 4.91359 4.94823 3.73219 6.44017 3.73732C8.06542 3.74318 9.16405 5.07546 9.13256 6.45021Z" fill="#4C93E5"/>
</svg>
