<svg width="30" height="30" viewBox="0 0 30 30" fill="none" xmlns="http://www.w3.org/2000/svg">
<path d="M26.6367 10.2783C26.6323 10.2446 26.6264 10.2117 26.6213 10.178C26.611 10.1135 26.6008 10.052 26.5978 9.99487C26.5393 8.97827 26.351 8.10449 26.0244 7.32373C25.3315 5.66992 24.1186 4.51636 22.4201 3.896C21.7822 3.66309 21.1274 3.521 20.4741 3.47485C20.0851 3.44775 19.6904 3.42798 19.3088 3.40967C19.0956 3.39941 18.8818 3.38916 18.6686 3.37744C18.6284 3.37524 18.583 3.36719 18.5346 3.35913C18.5082 3.35474 18.4819 3.34961 18.4548 3.34595L11.5649 3.34375L11.5436 3.34814C11.5231 3.35254 11.5026 3.35693 11.4821 3.36206C11.4536 3.36865 11.4272 3.37524 11.4103 3.37598C11.2353 3.3833 11.0595 3.38843 10.8837 3.39355C10.5505 3.40308 10.2055 3.41333 9.8642 3.43896C8.50776 3.54004 7.39594 3.87036 6.4643 4.44897C5.28876 5.1792 4.44794 6.19873 3.96454 7.48047C3.70966 8.15576 3.55292 8.8457 3.49799 9.53198C3.46577 9.93188 3.43061 10.397 3.41376 10.854C3.34565 12.7283 3.3581 14.6318 3.36982 16.4724C3.37348 17.0137 3.37641 17.5549 3.37787 18.0955C3.37934 18.7473 3.40864 19.4519 3.46723 20.251C3.5434 21.2939 3.77338 22.1978 4.17109 23.0144C4.82368 24.3547 5.84394 25.3384 7.20185 25.9382C7.89765 26.2451 8.65717 26.4385 9.52509 26.5293C10.1469 26.5945 10.7687 26.6135 11.3481 26.6245C11.3832 26.6245 11.4265 26.6333 11.4726 26.6414C11.4997 26.6465 11.5268 26.6516 11.5539 26.6553L18.4885 26.6575L18.5097 26.6531C18.5302 26.6487 18.5507 26.6443 18.5712 26.6392C18.5998 26.6326 18.6262 26.626 18.643 26.6252C18.8173 26.6179 18.9916 26.6128 19.1667 26.6077C19.4941 26.5974 19.8325 26.5872 20.1664 26.563C21.4533 26.4692 22.5139 26.1711 23.4096 25.6504C24.7646 24.863 25.6999 23.7029 26.1899 22.2029C26.3854 21.6038 26.5085 20.9922 26.5546 20.3865C26.5642 20.2649 26.5722 20.1426 26.5803 20.021C26.5883 19.898 26.5964 19.7756 26.6052 19.6555C26.6059 19.6497 26.6118 19.6335 26.6154 19.6218C26.6205 19.6057 26.6264 19.5889 26.6308 19.5728L26.6389 19.5435V10.3098L26.6367 10.2791V10.2783ZM24.1757 17.5234C24.1743 18.3811 24.134 19.2249 24.0908 20.0093C24.06 20.563 23.9589 21.0764 23.789 21.5356C23.3547 22.7119 22.5153 23.4912 21.2936 23.8516C20.8835 23.9724 20.4257 24.0464 19.894 24.0764C18.104 24.179 16.2788 24.1694 14.5136 24.1606C14.0031 24.1577 13.478 24.1555 12.9572 24.1555C12.8854 24.1555 12.8129 24.1555 12.7412 24.1555C12.1193 24.1555 11.4616 24.1409 10.6083 24.1057C10.0612 24.083 9.41669 24.0361 8.78608 23.8589C7.70063 23.5535 6.93744 22.936 6.45258 21.9722C6.25263 21.5745 6.11713 21.1233 6.03949 20.5938C5.92377 19.8086 5.91205 18.9963 5.90107 18.2112L5.89887 18.0625C5.88862 17.3528 5.88056 16.6431 5.8725 15.9333L5.86444 15.2258H5.87617V15.0076C5.87617 14.7944 5.87617 14.5813 5.87543 14.3674C5.87397 13.8899 5.87324 13.3955 5.87763 12.9099C5.88422 12.2412 5.89228 11.5864 5.92011 10.9309L5.92524 10.802C5.94721 10.2615 5.97065 9.70264 6.08344 9.1709C6.23798 8.43994 6.47602 7.88916 6.83271 7.43872C7.34321 6.79272 8.00532 6.36938 8.85566 6.1438C9.331 6.01782 9.83271 5.94605 10.3469 5.9314C11.3173 5.90283 12.353 5.875 13.3989 5.87061C15.0527 5.86328 16.6896 5.86841 18.2636 5.88452C18.9038 5.89111 19.5622 5.92188 20.2763 5.97827C20.9443 6.03101 21.5478 6.19727 22.0693 6.47192C22.9035 6.91138 23.4843 7.59473 23.7956 8.50293C23.9472 8.94458 24.0336 9.35254 24.06 9.75024C24.0673 9.85498 24.0747 9.96045 24.082 10.0652C24.1113 10.4841 24.142 10.9177 24.1457 11.3411C24.1618 13.0388 24.1794 15.2764 24.1765 17.5234H24.1757Z" fill="#4C93E5"/>
<path d="M15.0777 8.91384C15.0609 8.91384 15.0433 8.91384 15.0264 8.91384C13.4459 8.89699 11.8807 9.53566 10.7337 10.6651C9.57794 11.8032 8.93708 13.3347 8.92975 14.9776C8.92243 16.6204 9.54938 18.1592 10.6949 19.3106C11.8411 20.4619 13.3777 21.0962 15.0213 21.0962C16.7007 21.0962 18.2579 20.437 19.4056 19.2403C20.4947 18.1043 21.1187 16.5603 21.1187 15.0047C21.1187 13.3706 20.4727 11.8303 19.3001 10.6687C18.1568 9.53566 16.659 8.91384 15.077 8.91384H15.0777ZM17.5357 17.563C16.8546 18.2346 15.9654 18.5994 15.0308 18.5869H15.025C14.0904 18.5987 13.1976 18.2361 12.512 17.5593C11.8148 16.8716 11.4317 15.9605 11.4339 14.9951C11.4376 13.0205 13.0474 11.4129 15.0213 11.4114H15.0235C15.9778 11.4114 16.878 11.7871 17.5591 12.469C18.2425 13.1538 18.6182 14.0554 18.616 15.0091C18.6138 15.9715 18.2308 16.8782 17.5364 17.563H17.5357Z" fill="#4C93E5"/>
<path d="M21.1363 7.30396C20.3811 7.30396 19.5572 7.90308 19.544 8.87061C19.5381 9.2998 19.7 9.7041 19.9995 10.0095C20.2969 10.3127 20.6939 10.4812 21.1165 10.4834C21.1202 10.4834 21.1231 10.4834 21.1267 10.4834C21.5655 10.4834 21.972 10.3135 22.273 10.0051C22.5674 9.70337 22.7293 9.302 22.7183 8.90356C22.7307 8.49634 22.5762 8.10449 22.2818 7.7998C21.9778 7.48486 21.5611 7.30396 21.137 7.30396H21.1363Z" fill="#4C93E5"/>
</svg>
