<svg width="30" height="30" viewBox="0 0 30 30" fill="none" xmlns="http://www.w3.org/2000/svg">
<path d="M2.55834 22.884C5.31884 23.1287 7.80981 22.4446 10.0627 20.7549C9.72803 20.7051 9.43213 20.678 9.14355 20.6142C8.85864 20.5513 8.57373 20.47 8.30273 20.3616C8.02368 20.2502 7.75122 20.114 7.4956 19.9565C7.23999 19.7983 6.99462 19.6167 6.7705 19.416C6.54638 19.2153 6.33911 18.9912 6.15234 18.7546C5.97143 18.5254 5.81543 18.2734 5.66675 18.0207C5.51587 17.7637 5.38623 17.4934 5.30859 17.1697C6.06006 17.2576 6.78735 17.2722 7.56372 17.0613C6.33838 16.7654 5.36499 16.1677 4.61499 15.2273C3.86206 14.2832 3.48853 13.2043 3.48926 11.9599C4.20703 12.3196 4.93359 12.5613 5.7832 12.5745C4.66113 11.7666 3.94995 10.7383 3.65698 9.44042C3.36474 8.14476 3.56836 6.91722 4.22168 5.72704C4.50586 6.03832 4.76879 6.34301 5.05004 6.63011C5.33569 6.92162 5.63085 7.20507 5.93701 7.4746C6.24316 7.74413 6.55957 8.00341 6.88696 8.24657C7.21436 8.48973 7.5542 8.71752 7.90137 8.93138C8.2478 9.14525 8.60449 9.34594 8.96703 9.53124C9.32226 9.71215 9.68701 9.87767 10.0569 10.0286C10.4341 10.1824 10.8171 10.3237 11.2053 10.4453C11.5935 10.5669 11.989 10.6702 12.386 10.7573C12.7837 10.8445 13.1858 10.9119 13.5886 10.969C13.99 11.0261 14.395 11.0591 14.825 11.1052C14.8059 10.958 14.7913 10.8408 14.7759 10.7229C14.5481 8.94457 15.0469 7.41307 16.3484 6.16722C17.1577 5.39232 18.1304 4.94408 19.2451 4.81664C20.6499 4.65624 21.9133 5.01293 23.0295 5.88011C23.2288 6.03466 23.4119 6.21044 23.6191 6.39135C24.7397 6.17089 25.8091 5.76952 26.814 5.18578C26.8257 5.47509 26.4858 6.15917 26.0273 6.75096C25.6655 7.21825 25.2246 7.6035 24.7397 7.94847C25.7036 7.86058 26.614 7.57933 27.5112 7.23436C26.8389 8.27001 25.9914 9.12914 24.9983 9.85497C25.0041 9.96117 25.0115 10.0571 25.0144 10.1531C25.0356 10.8642 24.9851 11.5718 24.8987 12.2778C24.7624 13.3999 24.4885 14.4875 24.104 15.5488C23.5803 16.9939 22.8538 18.3291 21.928 19.5552C21.1458 20.5908 20.2405 21.5063 19.207 22.2922C18.1282 23.1118 16.9541 23.7607 15.6841 24.2361C14.803 24.5657 13.8977 24.8052 12.9712 24.956C12.4893 25.0351 12 25.0835 11.5122 25.115C10.9995 25.1479 10.4839 25.1684 9.97046 25.1538C8.12622 25.1018 6.34936 24.7297 4.64941 23.9995C3.92065 23.6868 3.22266 23.3205 2.55542 22.8818L2.55834 22.884Z" fill="#4C93E5"/>
</svg>
