<svg width="115" height="116" viewBox="0 0 115 116" fill="none" xmlns="http://www.w3.org/2000/svg">
<circle cx="57.5" cy="58" r="57.5" fill="url(#paint0_radial_1_309)"/>
<path d="M41.722 43.832C43.493 46.891 45.586 51.238 46.7935 56.9535H51.865C50.416 49.789 47.9205 44.476 45.6665 40.8535C46.4715 39.646 46.9545 38.197 46.9545 36.6675C46.9545 32.4815 43.5735 29.1005 39.3875 29.1005C35.2015 29.1005 31.8205 32.4815 31.8205 36.6675C31.8205 40.8535 35.2015 44.2345 39.3875 44.2345C40.273 44.2345 40.9975 44.0735 41.722 43.832ZM36.731 36.6675C36.731 35.2185 37.9385 34.011 39.3875 34.011C40.8365 34.011 42.044 35.2185 42.044 36.6675C42.044 38.1165 40.8365 39.324 39.3875 39.324C37.9385 39.324 36.731 38.1165 36.731 36.6675Z" fill="white"/>
<path d="M75.6125 29.1005C71.4265 29.1005 68.0455 32.4815 68.0455 36.6675C68.0455 38.197 68.5285 39.646 69.3335 40.8535C67.0795 44.476 64.584 49.789 63.135 56.9535H68.126C69.414 51.1575 71.4265 46.8105 73.1975 43.832C73.922 44.0735 74.727 44.2345 75.532 44.2345C79.718 44.2345 83.099 40.8535 83.099 36.6675C83.099 32.4815 79.718 29.1005 75.6125 29.1005ZM75.6125 39.324C74.1635 39.324 72.956 38.1165 72.956 36.6675C72.956 35.2185 74.1635 34.011 75.6125 34.011C77.0615 34.011 78.269 35.2185 78.269 36.6675C78.269 38.1165 77.0615 39.324 75.6125 39.324Z" fill="white"/>
<path d="M55.085 34.4135V56.9535H59.915V34.4135C62.8935 33.367 65.067 30.63 65.067 27.3295C65.067 23.1435 61.686 19.7625 57.5 19.7625C53.314 19.7625 49.933 23.1435 49.933 27.3295C49.933 30.63 52.1065 33.4475 55.085 34.4135ZM57.5 24.673C58.949 24.673 60.1565 25.8805 60.1565 27.3295C60.1565 28.7785 58.949 29.986 57.5 29.986C56.051 29.986 54.8435 28.7785 54.8435 27.3295C54.8435 25.8805 56.051 24.673 57.5 24.673Z" fill="white"/>
<path d="M74.083 68.7065H72.795V62.186C72.795 61.22 71.99 60.415 71.024 60.415H44.0565C43.0905 60.415 42.2855 61.22 42.2855 62.186V68.7065H40.917C39.2265 68.7065 37.858 70.075 37.858 71.7655V96.2375H77.142V71.7655C77.142 70.075 75.7735 68.7065 74.083 68.7065Z" fill="white"/>
<defs>
<radialGradient id="paint0_radial_1_309" cx="0" cy="0" r="1" gradientUnits="userSpaceOnUse" gradientTransform="translate(35.075 18.9) rotate(63.435) scale(81.0016)">
<stop offset="0.172827" stop-color="#4C93E5"/>
<stop offset="1" stop-color="#3193EC"/>
</radialGradient>
</defs>
</svg>
