<svg width="115" height="115" viewBox="0 0 115 115" fill="none" xmlns="http://www.w3.org/2000/svg">
<circle cx="57.5" cy="57.5" r="57.5" fill="url(#paint0_radial_1_288)"/>
<path d="M98.992 43.148L85.284 33.304V20.516C85.284 19.136 84.18 18.032 82.8 18.032H77.188C75.808 18.032 74.704 19.136 74.704 20.516V25.576L60.26 15.18C58.604 13.984 56.396 13.984 54.74 15.18L16.008 43.148C13.524 44.896 13.064 48.392 14.996 50.784C16.744 52.9 19.872 53.36 22.172 51.704L57.5 26.22L92.828 51.704C95.128 53.36 98.256 52.9 100.004 50.784C101.936 48.484 101.476 44.896 98.992 43.148Z" fill="white"/>
<path d="M26.312 56.028V89.056C26.312 90.436 27.416 91.448 28.796 91.448H86.204C87.584 91.448 88.688 90.344 88.688 89.056V56.028L57.5 33.488L26.312 56.028ZM44.252 57.316C44.252 54.832 46.276 52.716 48.852 52.716C51.336 52.716 53.452 54.74 53.452 57.316C53.452 59.8 51.428 61.916 48.852 61.916C46.276 61.824 44.252 59.8 44.252 57.316ZM68.356 70.38C68.356 76.36 63.664 81.512 57.684 81.604C51.612 81.696 46.644 76.82 46.644 70.748V70.012C46.644 69.276 47.196 68.724 47.932 68.724H66.976C67.712 68.724 68.264 69.276 68.264 70.012V70.38H68.356ZM66.148 52.716C68.632 52.716 70.748 54.74 70.748 57.316C70.748 59.8 68.724 61.916 66.148 61.916C63.664 61.916 61.548 59.892 61.548 57.316C61.64 54.74 63.664 52.716 66.148 52.716Z" fill="white"/>
<defs>
<radialGradient id="paint0_radial_1_288" cx="0" cy="0" r="1" gradientUnits="userSpaceOnUse" gradientTransform="translate(35.075 18.4) rotate(63.435) scale(81.0016)">
<stop offset="0.172827" stop-color="#4C93E5"/>
<stop offset="1" stop-color="#3193EC"/>
</radialGradient>
</defs>
</svg>
