<svg width="115" height="116" viewBox="0 0 115 116" fill="none" xmlns="http://www.w3.org/2000/svg">
<circle cx="57.5" cy="58" r="57.5" fill="url(#paint0_radial_1_304)"/>
<path d="M33.35 71.0525C37.697 71.0525 41.239 67.5105 41.239 63.1635C41.239 58.8165 37.697 55.355 33.35 55.355C29.003 55.355 25.461 58.897 25.461 63.244C25.461 67.591 29.003 71.0525 33.35 71.0525Z" fill="white"/>
<path d="M40.112 73.1455C38.18 74.4335 35.8455 75.2385 33.35 75.2385C30.8545 75.2385 28.52 74.4335 26.588 73.1455C22.8045 75.2385 20.2285 79.344 20.2285 84.013V85.623C20.2285 87.394 21.6775 88.7625 23.368 88.7625H40.1925V88.038C40.1925 83.852 41.722 80.0685 44.298 77.1705C43.2515 75.48 41.8025 74.1115 40.112 73.1455Z" fill="white"/>
<path d="M73.8415 63.1635C73.8415 67.5105 77.3835 71.0525 81.7305 71.0525C86.0775 71.0525 89.6195 67.5105 89.6195 63.1635C89.6195 58.8165 85.997 55.355 81.65 55.355C77.303 55.355 73.8415 58.897 73.8415 63.1635Z" fill="white"/>
<path d="M88.412 73.1455C86.48 74.4335 84.1455 75.2385 81.65 75.2385C79.1545 75.2385 76.82 74.4335 74.888 73.1455C73.1975 74.1115 71.668 75.48 70.6215 77.09C73.1975 79.988 74.727 83.7715 74.727 87.9575V88.682H91.5515C93.3225 88.682 94.691 87.3135 94.691 85.5425V83.9325C94.7715 79.344 92.1955 75.2385 88.412 73.1455Z" fill="white"/>
<path d="M49.611 67.269C49.611 71.616 53.153 75.158 57.5 75.158C61.847 75.158 65.389 71.616 65.389 67.269C65.389 62.922 61.847 59.38 57.5 59.38C53.153 59.38 49.611 62.922 49.611 67.269Z" fill="white"/>
<path d="M64.262 77.1705C62.33 78.4585 59.9955 79.2635 57.5 79.2635C55.0045 79.2635 52.67 78.4585 50.738 77.1705C46.9545 79.2635 44.3785 83.369 44.3785 88.038V89.648C44.3785 91.419 45.8275 92.7875 47.518 92.7875H67.321C69.092 92.7875 70.4605 91.3385 70.4605 89.648V88.038C70.6215 83.369 68.0455 79.2635 64.262 77.1705Z" fill="white"/>
<path d="M57.5 54.872C68.126 54.872 76.7396 46.2585 76.7396 35.6325C76.7396 25.0065 68.126 16.3125 57.5 16.3125C46.874 16.3125 38.2605 24.926 38.2605 35.552C38.2605 46.178 46.874 54.872 57.5 54.872ZM57.5 20.418C58.305 20.579 59.8345 23.3965 60.72 28.3875H54.3605C55.1655 23.316 56.695 20.4985 57.5 20.418ZM61.1225 32.493C61.203 33.459 61.203 34.5055 61.203 35.6325C61.203 36.7595 61.1225 37.7255 61.1225 38.772H53.8775C53.797 37.806 53.797 36.7595 53.797 35.6325C53.797 34.5055 53.8775 33.5395 53.8775 32.493H61.1225ZM72.7146 35.552C72.7146 36.5985 72.634 37.645 72.3925 38.6915H65.228C65.3085 37.645 65.3085 36.5985 65.3085 35.552C65.3085 34.5055 65.3085 33.459 65.228 32.4125H72.3925C72.5535 33.459 72.7146 34.5055 72.7146 35.552ZM57.5 50.7665C56.695 50.6055 55.1655 47.788 54.28 42.797H60.6395C59.8345 47.8685 58.305 50.686 57.5 50.7665ZM49.772 38.6915H42.6075C42.366 37.645 42.2855 36.679 42.2855 35.552C42.2855 34.5055 42.366 33.459 42.6075 32.4125H49.772C49.6915 33.459 49.6915 34.5055 49.6915 35.552C49.6915 36.5985 49.6915 37.645 49.772 38.6915ZM44.137 42.797H50.1745C50.577 45.373 51.1405 47.788 51.9455 49.72C48.645 48.432 45.8275 45.9365 44.137 42.797ZM63.0545 49.72C63.8595 47.7075 64.5035 45.373 64.8255 42.797H70.863C69.1725 45.9365 66.355 48.432 63.0545 49.72ZM70.863 28.3875H64.8255C64.423 25.8115 63.8595 23.3965 63.0545 21.4645C66.355 22.7525 69.1725 25.248 70.863 28.3875ZM51.9455 21.4645C51.1405 23.477 50.4965 25.8115 50.1745 28.3875H44.137C45.8275 25.248 48.645 22.7525 51.9455 21.4645Z" fill="white"/>
<defs>
<radialGradient id="paint0_radial_1_304" cx="0" cy="0" r="1" gradientUnits="userSpaceOnUse" gradientTransform="translate(35.075 18.9) rotate(63.435) scale(81.0016)">
<stop offset="0.172827" stop-color="#4C93E5"/>
<stop offset="1" stop-color="#3193EC"/>
</radialGradient>
</defs>
</svg>
