<svg width="115" height="116" viewBox="0 0 115 116" fill="none" xmlns="http://www.w3.org/2000/svg">
<circle cx="57.5" cy="58" r="57.5" fill="url(#paint0_radial_1_293)"/>
<path d="M90.988 39.646L67.321 21.2115C64.8255 19.2795 61.4445 19.2795 58.949 21.2115L35.282 39.646C33.9135 40.6925 33.189 42.222 33.189 43.9125V45.925C33.189 48.2595 35.0405 50.111 37.375 50.111H39.79V64.1985C41.239 63.474 42.688 63.0715 44.298 62.9105V47.857C44.298 46.6495 43.332 45.603 42.044 45.603H37.697V43.9125C37.697 43.5905 37.858 43.349 38.0995 43.188L61.686 24.7535C62.491 24.1095 63.6985 24.1095 64.5035 24.7535L88.1705 43.188C88.412 43.4295 88.4925 43.671 88.4925 43.9125V45.603H84.1455C82.938 45.603 81.8915 46.6495 81.8915 47.857V63.635H81.972C82.6965 63.3935 83.421 63.313 84.226 63.313C84.9505 63.313 85.675 63.3935 86.3995 63.635V50.111H88.8145C91.149 50.111 93.0005 48.2595 93.0005 45.925V43.9125C93.081 42.222 92.276 40.6925 90.988 39.646Z" fill="white"/>
<path d="M83.3405 67.9015L71.829 71.202C71.829 71.524 71.829 71.7655 71.829 72.0875C71.5875 75.3075 69.092 78.0445 65.872 78.608L65.389 78.6885C61.042 79.4935 56.695 79.9765 52.2675 80.057L48.7255 80.1375C48.162 80.1375 47.679 79.9765 47.2765 79.574C46.874 79.1715 46.6325 78.6885 46.6325 78.125C46.6325 77.5615 46.874 76.998 47.196 76.676C47.5985 76.2735 48.0815 76.032 48.645 76.032L52.348 75.9515C56.373 75.871 60.3175 75.4685 64.262 74.744L64.9865 74.583C66.355 74.3415 67.4015 73.134 67.5625 71.7655C67.643 70.9605 67.321 70.1555 66.7575 69.5115C66.194 68.8675 65.389 68.5455 64.584 68.465L46.1495 67.4185C44.137 67.338 42.1245 67.9015 40.434 69.0285L22.885 81.989C21.758 82.8745 21.597 84.4845 22.563 85.531L32.223 95.513C33.028 96.3985 34.3965 96.479 35.3625 95.7545L39.629 92.5345C40.273 92.0515 41.1585 91.81 42.044 91.8905L55.9705 93.581C58.627 93.903 61.2835 93.1785 63.457 91.5685L86.5605 74.3415C87.3655 73.6975 87.929 72.812 88.0095 71.7655C88.09 70.719 87.768 69.753 87.0435 68.948C86.158 67.982 84.6285 67.499 83.3405 67.9015Z" fill="white"/>
<path d="M76.4175 46.1664C77.2225 45.3614 77.2225 44.0734 76.4175 43.2684C72.956 39.7264 68.126 37.7139 63.135 37.7139C58.0635 37.7139 53.3945 39.6459 49.8525 43.1879C49.0475 43.9929 49.0475 45.2809 49.8525 46.0859C50.6575 46.8909 51.9455 46.8909 52.7505 46.0859C55.568 43.2684 59.271 41.7389 63.2155 41.7389C67.0795 41.7389 70.9435 43.3489 73.6 46.0859C74.3245 46.9714 75.6125 46.9714 76.4175 46.1664Z" fill="white"/>
<path d="M70.9435 51.6405C71.7485 50.8355 71.7485 49.5475 70.9435 48.7425C68.8505 46.6495 66.1135 45.5225 63.135 45.5225C60.1565 45.5225 57.4195 46.6495 55.3265 48.7425C54.5215 49.5475 54.5215 50.8355 55.3265 51.6405C56.1315 52.4455 57.4195 52.4455 58.2245 51.6405C59.5125 50.3525 61.2835 49.628 63.135 49.628C64.9865 49.628 66.7575 50.3525 68.0455 51.6405C68.8505 52.4455 70.1385 52.4455 70.9435 51.6405Z" fill="white"/>
<path d="M59.915 56.5511C59.915 58.3221 61.364 59.7711 63.135 59.7711C64.906 59.7711 66.355 58.3221 66.355 56.5511C66.355 54.7801 64.906 53.3311 63.135 53.3311C61.364 53.3311 59.915 54.7801 59.915 56.5511Z" fill="white"/>
<defs>
<radialGradient id="paint0_radial_1_293" cx="0" cy="0" r="1" gradientUnits="userSpaceOnUse" gradientTransform="translate(35.075 18.9) rotate(63.435) scale(81.0016)">
<stop offset="0.172827" stop-color="#4C93E5"/>
<stop offset="1" stop-color="#3193EC"/>
</radialGradient>
</defs>
</svg>
