<svg width="115" height="115" viewBox="0 0 115 115" fill="none" xmlns="http://www.w3.org/2000/svg">
<circle cx="57.5" cy="57.5" r="57.5" fill="url(#paint0_radial_1_298)"/>
<g clip-path="url(#clip0_1_298)">
<path d="M36.8 48.944H76.176C83.812 48.944 89.976 42.78 89.976 35.144C89.976 27.508 83.812 21.344 76.176 21.344C75.164 21.344 74.152 21.436 73.14 21.712C70.104 15.732 63.756 11.5 56.396 11.5C47.564 11.5 40.204 17.572 38.18 25.76C37.72 25.668 37.168 25.576 36.708 25.576C30.268 25.576 25.024 30.82 25.024 37.26C25.116 43.7 30.36 48.944 36.8 48.944Z" fill="white"/>
<path d="M41.86 67.896C41.86 68.54 41.308 69.092 40.664 69.092H35.42C31.924 69.092 29.164 71.944 29.164 75.348V84.548C26.312 85.56 24.288 88.32 24.288 91.448C24.288 95.496 27.6 98.9 31.74 98.9C35.88 98.9 39.192 95.588 39.192 91.448C39.192 88.228 37.168 85.56 34.316 84.548V75.348C34.316 74.704 34.868 74.152 35.512 74.152H40.756C44.252 74.152 47.012 71.3 47.012 67.896V54.556H41.86V67.896Z" fill="white"/>
<path d="M60.076 84.548V54.556H54.924V84.548C52.072 85.56 50.048 88.32 50.048 91.448C50.048 95.496 53.36 98.9 57.5 98.9C61.64 98.9 64.952 95.588 64.952 91.448C64.952 88.32 62.928 85.56 60.076 84.548Z" fill="white"/>
<path d="M85.928 84.548V75.348C85.928 71.852 83.076 69.092 79.672 69.092H74.428C73.784 69.092 73.232 68.54 73.232 67.896V54.556H68.08V67.804C68.08 71.3 70.932 74.06 74.336 74.06H79.58C80.224 74.06 80.776 74.612 80.776 75.256V84.456C77.924 85.56 75.9 88.32 75.9 91.448C75.9 95.496 79.212 98.9 83.352 98.9C87.4 98.9 90.804 95.588 90.804 91.448C90.712 88.32 88.688 85.56 85.928 84.548Z" fill="white"/>
</g>
<defs>
<radialGradient id="paint0_radial_1_298" cx="0" cy="0" r="1" gradientUnits="userSpaceOnUse" gradientTransform="translate(35.075 18.4) rotate(63.435) scale(81.0016)">
<stop offset="0.172827" stop-color="#4C93E5"/>
<stop offset="1" stop-color="#3193EC"/>
</radialGradient>
<clipPath id="clip0_1_298">
<rect width="92" height="92" fill="white" transform="translate(11.5 9.20001)"/>
</clipPath>
</defs>
</svg>
