<svg width="115" height="115" viewBox="0 0 115 115" fill="none" xmlns="http://www.w3.org/2000/svg">
<circle cx="57.5" cy="57.5" r="57.5" fill="url(#paint0_radial_1_298)"/>
<g clip-path="url(#clip0_1_298)">
<path d="M36.8 48.944H76.176C83.812 48.944 89.976 42.78 89.976 35.144C89.976 27.508 83.812 21.344 76.176 21.344C75.164 21.344 74.152 21.436 73.14 21.712C70.104 15.732 63.756 11.5 56.396 11.5C47.564 11.5 40.204 17.572 38.18 25.76C37.72 25.668 37.168 25.576 36.708 25.576C30.268 25.576 25.024 30.82 25.024 37.26C25.116 43.7 30.36 48.944 36.8 48.944Z" fill="white"/>
<path d="M41.86 67.8959C41.86 68.5399 41.308 69.0919 40.664 69.0919H35.42C31.924 69.0919 29.164 71.9439 29.164 75.3479V84.5479C26.312 85.5599 24.288 88.3199 24.288 91.4479C24.288 95.4959 27.6 98.8999 31.74 98.8999C35.88 98.8999 39.192 95.5879 39.192 91.4479C39.192 88.2279 37.168 85.5599 34.316 84.5479V75.3479C34.316 74.7039 34.868 74.1519 35.512 74.1519H40.756C44.252 74.1519 47.012 71.2999 47.012 67.8959V54.5559H41.86V67.8959Z" fill="white"/>
<path d="M60.076 84.5479V54.5559H54.924V84.5479C52.072 85.5599 50.048 88.3199 50.048 91.4479C50.048 95.4959 53.36 98.8999 57.5 98.8999C61.64 98.8999 64.952 95.5879 64.952 91.4479C64.952 88.3199 62.928 85.5599 60.076 84.5479Z" fill="white"/>
<path d="M85.928 84.5479V75.3479C85.928 71.8519 83.076 69.0919 79.672 69.0919H74.428C73.784 69.0919 73.232 68.5399 73.232 67.8959V54.5559H68.08V67.8039C68.08 71.2999 70.932 74.0599 74.336 74.0599H79.58C80.224 74.0599 80.776 74.6119 80.776 75.2559V84.4559C77.924 85.5599 75.9 88.3199 75.9 91.4479C75.9 95.4959 79.212 98.8999 83.352 98.8999C87.4 98.8999 90.804 95.5879 90.804 91.4479C90.712 88.3199 88.688 85.5599 85.928 84.5479Z" fill="white"/>
</g>
<defs>
<radialGradient id="paint0_radial_1_298" cx="0" cy="0" r="1" gradientUnits="userSpaceOnUse" gradientTransform="translate(35.075 18.4) rotate(63.435) scale(81.0016)">
<stop offset="0.172827" stop-color="#4C93E5"/>
<stop offset="1" stop-color="#3193EC"/>
</radialGradient>
<clipPath id="clip0_1_298">
<rect width="92" height="92" fill="white" transform="translate(11.5 9.19995)"/>
</clipPath>
</defs>
</svg>
