<svg width="418" height="421" viewBox="0 0 418 421" fill="none" xmlns="http://www.w3.org/2000/svg">
<g clip-path="url(#clip0_1_500)">
<path d="M402.623 12.7293C402.623 31.6818 408.263 49.3143 417.938 64.0593C382.988 72.0993 355.515 99.6693 347.618 134.672C340.32 132.849 332.685 131.867 324.817 131.867C294.255 131.867 267.12 146.499 250.005 169.127C234.232 157.089 214.545 149.919 193.178 149.919C141.397 149.919 99.4275 191.889 99.4275 243.669C99.4275 244.119 99.4575 244.554 99.4575 245.004C57.9825 254.679 27.0675 291.857 27.0675 336.279C27.0675 350.867 30.405 364.682 36.345 376.989C20.1 387.459 7.29001 402.804 0 420.962V0.211823H403.478C402.93 4.31432 402.623 8.48433 402.623 12.7368V12.7293Z" fill="#CCDBEE"/>
<path d="M332.663 60.0318C319.118 65.0118 307.74 74.4468 300.3 86.5668C293.543 84.1293 286.26 82.7943 278.663 82.7943C267.435 82.7943 256.898 85.7043 247.74 90.7968C236.205 79.2618 220.268 72.1293 202.665 72.1293C178.935 72.1293 158.25 85.1043 147.277 104.334C138.037 99.1218 127.373 96.1293 116.003 96.1293C80.7975 96.1293 52.2525 124.674 52.2525 159.879C52.2525 178.637 60.3525 195.497 73.245 207.159C65.1 215.432 59.205 225.924 56.535 237.639C55.035 237.534 53.5275 237.459 52.005 237.459C30.54 237.459 11.565 248.079 0.0150146 264.339V0.211823H349.508C338.018 11.7393 330.908 27.6468 330.908 45.2118C330.908 50.3118 331.523 55.2693 332.655 60.0318H332.663Z" fill="#ABC7E5"/>
</g>
<defs>
<clipPath id="clip0_1_500">
<rect width="418" height="421" fill="white" transform="matrix(-1 0 0 1 418 0)"/>
</clipPath>
</defs>
</svg>
